<svg width="48" height="48" viewBox="0 0 48 48" fill="none" xmlns="http://www.w3.org/2000/svg">
<circle cx="24" cy="24" r="24" fill="url(#paint0_linear_1010_11754)"/>
<path d="M33.14 25.3543C33.9107 23.5504 34.2711 21.5855 34.1712 19.6023C33.9892 15.9835 32.2229 12.844 29.2006 10.762C26.0498 8.5922 21.8285 8.40925 18.7026 10.3083C16.0692 11.9073 14.3564 14.2601 13.6142 17.2934C13.0255 19.6974 13.0255 22.1161 13.0219 24.4505C13.0219 24.8494 13.0219 25.2519 13.0183 25.6507C12.9898 29.1414 13.0005 34.8861 13.0112 38H16.658C16.6508 34.8971 16.6366 29.1634 16.6651 25.6836C16.6651 25.2738 16.6651 24.864 16.6651 24.4542C16.6651 22.2478 16.6651 20.1621 17.1468 18.2045C17.6571 16.1152 18.7419 14.6296 20.5546 13.5246C22.4672 12.3647 25.1827 12.5037 27.1631 13.8649C29.2398 15.2956 30.3995 17.3447 30.5244 19.7926C30.5708 20.7256 30.4744 21.6514 30.2389 22.5478C28.5618 21.3111 26.8134 20.6561 25.0899 20.6415C23.3164 20.6232 21.5323 21.4208 20.3084 22.7747C19.2593 23.9309 18.749 25.3726 18.8668 26.8289C19.0987 29.683 21.7285 31.9809 24.7509 31.9809H24.8294C27.0489 31.9516 29.304 30.7624 31.0561 28.706C32.9544 31.3918 34.0998 34.6776 34.3354 38H38C37.7502 33.3969 36.0481 28.8963 33.1328 25.3543H33.14ZM28.4084 26.141C27.3236 27.4619 26.0069 28.2267 24.7937 28.2413C23.6875 28.2486 22.5814 27.418 22.51 26.5216C22.4707 26.0129 22.7491 25.5885 22.9917 25.3214C23.5091 24.7506 24.3156 24.381 25.0506 24.381H25.0685C26.3566 24.392 27.5841 25.1092 28.5725 25.9361C28.519 26.0056 28.4655 26.0715 28.412 26.141H28.4084Z" fill="white"/>
<defs>
<linearGradient id="paint0_linear_1010_11754" x1="24" y1="0" x2="24" y2="48" gradientUnits="userSpaceOnUse">
<stop stop-color="#8521BC"/>
<stop offset="1" stop-color="#A00683"/>
</linearGradient>
</defs>
</svg>
