<svg width="48" height="48" viewBox="0 0 48 48" fill="none" xmlns="http://www.w3.org/2000/svg">
<path d="M33.5568 24.9183C34.42 23.0521 34.8237 21.0195 34.7118 18.9679C34.5079 15.2243 32.5297 11.9766 29.1446 9.82278C25.6157 7.57814 20.8879 7.38888 17.3869 9.35341C14.4375 11.0076 12.5192 13.4415 11.6879 16.5794C11.0285 19.0663 11.0285 21.5683 11.0245 23.9833C11.0245 24.3959 11.0245 24.8123 11.0205 25.2249C10.9885 28.836 11.0005 34.7788 11.0125 38H15.0969C15.089 34.7901 15.073 28.8587 15.1049 25.2589C15.1049 24.835 15.1049 24.411 15.1049 23.9871C15.1049 21.7046 15.1049 19.547 15.6445 17.5219C16.216 15.3606 17.4309 13.8238 19.4611 12.6806C21.6032 11.4807 24.6446 11.6245 26.8626 13.0327C29.1886 14.5127 30.4875 16.6324 30.6273 19.1647C30.6793 20.1299 30.5714 21.0876 30.3076 22.015C28.4293 20.7356 26.471 20.058 24.5407 20.0429C22.5544 20.024 20.5562 20.8491 19.1854 22.2497C18.0104 23.4458 17.4389 24.9372 17.5708 26.4437C17.8305 29.3962 20.776 31.7733 24.161 31.7733H24.2489C26.7347 31.743 29.2605 30.5128 31.2228 28.3855C33.349 31.1639 34.6318 34.563 34.8956 38H39C38.7202 33.2382 36.8139 28.5824 33.5488 24.9183H33.5568ZM28.2574 25.7321C27.0425 27.0985 25.5678 27.8897 24.209 27.9048C22.97 27.9124 21.7311 27.0531 21.6512 26.1257C21.6072 25.5996 21.919 25.1605 22.1907 24.8842C22.7702 24.2937 23.6734 23.9114 24.4967 23.9114H24.5167C25.9594 23.9227 27.3342 24.6646 28.4413 25.5201C28.3813 25.592 28.3214 25.6602 28.2614 25.7321H28.2574Z" fill="white"/>
</svg>
